<?xml version="1.0" standalone="no"?>
<!DOCTYPE svg PUBLIC "-//W3C//DTD SVG 20010904//EN"
 "http://www.w3.org/TR/2001/REC-SVG-20010904/DTD/svg10.dtd">
<svg version="1.0" xmlns="http://www.w3.org/2000/svg"
 width="215.000000pt" height="218.000000pt" viewBox="0 0 215.000000 218.000000"
 preserveAspectRatio="xMidYMid meet">
<metadata>
Created by potrace 1.16, written by Peter Selinger 2001-2019
</metadata>
<g transform="translate(0.000000,218.000000) scale(0.100000,-0.100000)"
fill="#000000" stroke="none">
<path d="M965 2033 c-171 -22 -323 -80 -440 -167 -61 -45 -162 -145 -209 -206
-178 -232 -230 -545 -139 -834 104 -331 394 -581 738 -637 105 -17 298 -6 394
21 314 89 562 339 653 656 19 67 23 103 23 239 0 174 -8 220 -65 362 -75 186
-254 379 -439 472 -149 76 -361 114 -516 94z m334 -82 c294 -86 534 -332 613
-631 18 -68 22 -110 21 -215 -1 -160 -21 -246 -94 -394 -46 -93 -63 -116 -158
-211 -138 -139 -248 -203 -427 -247 -105 -25 -296 -23 -404 6 -300 78 -546
318 -632 618 -30 103 -33 342 -5 442 43 156 98 256 205 371 143 155 279 234
472 275 96 21 314 13 409 -14z"/>
<path d="M945 1940 c-95 -15 -163 -38 -265 -88 -84 -41 -108 -60 -205 -157
-97 -96 -116 -122 -158 -205 -69 -139 -90 -228 -90 -380 0 -96 5 -143 22 -205
76 -284 283 -504 561 -597 89 -30 104 -32 245 -32 178 -1 253 16 399 92 76 38
109 64 196 152 88 87 114 120 152 196 76 146 93 221 92 399 0 136 -3 158 -28
235 -58 175 -156 314 -298 423 -173 132 -420 198 -623 167z m210 -404 c19 -23
23 -24 75 -14 58 11 115 -2 108 -23 -2 -6 -142 -95 -311 -197 -169 -102 -305
-187 -303 -189 2 -2 82 43 177 101 430 258 449 269 464 256 12 -10 22 -8 50 9
48 28 62 27 80 -9 14 -28 14 -30 -10 -47 -71 -49 -68 -43 -35 -95 51 -81 151
-257 165 -291 11 -27 11 -38 0 -70 -7 -21 -21 -45 -32 -53 -16 -12 -452 -273
-566 -339 -39 -22 -56 -26 -90 -22 -53 7 -62 18 -177 209 -51 84 -93 154 -95
156 -1 2 -23 -7 -49 -20 -45 -22 -46 -22 -61 -2 -23 30 -18 51 20 74 24 15 35
29 35 45 0 18 13 31 55 55 30 17 55 33 55 35 0 7 -34 -8 -73 -32 -21 -13 -42
-21 -47 -18 -42 26 57 158 192 254 l47 33 -30 25 c-16 14 -29 31 -29 38 0 8
17 32 38 54 29 31 47 41 86 46 52 8 66 0 66 -42 0 -32 9 -33 68 -7 44 19 52
27 47 43 -4 13 2 25 22 40 35 26 33 26 58 -3z"/>
</g>
</svg>
